<mxfile host="app.diagrams.net" modified="2023-07-05T08:53:25.481Z" agent="Mozilla/5.0 (Windows NT 10.0; Win64; x64) AppleWebKit/537.36 (KHTML, like Gecko) Chrome/114.0.0.0 Safari/537.36" etag="PTN4r9aiKT9TK8Nosn6S" version="21.5.2" type="device">
  <diagram name="Page-1" id="Tl25OyNvAsXk6f0JurLb">
    <mxGraphModel dx="1434" dy="788" grid="1" gridSize="10" guides="1" tooltips="1" connect="1" arrows="1" fold="1" page="1" pageScale="1" pageWidth="827" pageHeight="1169" math="0" shadow="0">
      <root>
        <mxCell id="0" />
        <mxCell id="1" parent="0" />
        <mxCell id="-gcD1UyaqMXCcbMiYJz5-1" value="Order" style="swimlane;fontStyle=1;align=center;verticalAlign=top;childLayout=stackLayout;horizontal=1;startSize=26;horizontalStack=0;resizeParent=1;resizeParentMax=0;resizeLast=0;collapsible=1;marginBottom=0;whiteSpace=wrap;html=1;" parent="1" vertex="1">
          <mxGeometry x="890" y="356" width="160" height="118" as="geometry" />
        </mxCell>
        <mxCell id="-gcD1UyaqMXCcbMiYJz5-2" value="- String: type_presta&lt;br&gt;- String: designation&lt;br&gt;- Integer: nb_days&lt;br&gt;- Integer: unit_price&lt;br&gt;- Integer: state" style="text;strokeColor=none;fillColor=none;align=left;verticalAlign=top;spacingLeft=4;spacingRight=4;overflow=hidden;rotatable=0;points=[[0,0.5],[1,0.5]];portConstraint=eastwest;whiteSpace=wrap;html=1;" parent="-gcD1UyaqMXCcbMiYJz5-1" vertex="1">
          <mxGeometry y="26" width="160" height="84" as="geometry" />
        </mxCell>
        <mxCell id="-gcD1UyaqMXCcbMiYJz5-3" value="" style="line;strokeWidth=1;fillColor=none;align=left;verticalAlign=middle;spacingTop=-1;spacingLeft=3;spacingRight=3;rotatable=0;labelPosition=right;points=[];portConstraint=eastwest;strokeColor=inherit;" parent="-gcD1UyaqMXCcbMiYJz5-1" vertex="1">
          <mxGeometry y="110" width="160" height="8" as="geometry" />
        </mxCell>
        <mxCell id="-gcD1UyaqMXCcbMiYJz5-15" value="OrderDAO" style="swimlane;fontStyle=1;align=center;verticalAlign=top;childLayout=stackLayout;horizontal=1;startSize=26;horizontalStack=0;resizeParent=1;resizeParentMax=0;resizeLast=0;collapsible=1;marginBottom=0;whiteSpace=wrap;html=1;" parent="1" vertex="1">
          <mxGeometry x="570" y="362" width="160" height="106" as="geometry" />
        </mxCell>
        <mxCell id="-gcD1UyaqMXCcbMiYJz5-17" value="" style="line;strokeWidth=1;fillColor=none;align=left;verticalAlign=middle;spacingTop=-1;spacingLeft=3;spacingRight=3;rotatable=0;labelPosition=right;points=[];portConstraint=eastwest;strokeColor=inherit;" parent="-gcD1UyaqMXCcbMiYJz5-15" vertex="1">
          <mxGeometry y="26" width="160" height="8" as="geometry" />
        </mxCell>
        <mxCell id="-gcD1UyaqMXCcbMiYJz5-18" value="+getOrderById&lt;span style=&quot;background-color: initial;&quot;&gt;(integer id): Order&lt;br&gt;&lt;br&gt;+ getOrders(): List&amp;lt;Order&amp;gt;&lt;br&gt;&lt;/span&gt;" style="text;strokeColor=none;fillColor=none;align=left;verticalAlign=top;spacingLeft=4;spacingRight=4;overflow=hidden;rotatable=0;points=[[0,0.5],[1,0.5]];portConstraint=eastwest;whiteSpace=wrap;html=1;" parent="-gcD1UyaqMXCcbMiYJz5-15" vertex="1">
          <mxGeometry y="34" width="160" height="72" as="geometry" />
        </mxCell>
        <mxCell id="-gcD1UyaqMXCcbMiYJz5-23" value="OrderServlet" style="swimlane;fontStyle=1;align=center;verticalAlign=top;childLayout=stackLayout;horizontal=1;startSize=26;horizontalStack=0;resizeParent=1;resizeParentMax=0;resizeLast=0;collapsible=1;marginBottom=0;whiteSpace=wrap;html=1;" parent="1" vertex="1">
          <mxGeometry x="50" y="358" width="210" height="90" as="geometry" />
        </mxCell>
        <mxCell id="-gcD1UyaqMXCcbMiYJz5-25" value="" style="line;strokeWidth=1;fillColor=none;align=left;verticalAlign=middle;spacingTop=-1;spacingLeft=3;spacingRight=3;rotatable=0;labelPosition=right;points=[];portConstraint=eastwest;strokeColor=inherit;" parent="-gcD1UyaqMXCcbMiYJz5-23" vertex="1">
          <mxGeometry y="26" width="210" height="8" as="geometry" />
        </mxCell>
        <mxCell id="-gcD1UyaqMXCcbMiYJz5-26" value="+doGet&lt;span style=&quot;background-color: initial;&quot;&gt;(request, response): Void&lt;br&gt;&lt;br&gt;+init(): Void&lt;br&gt;&lt;/span&gt;&lt;div style=&quot;background-color:#2f2f2f;padding:0px 0px 0px 2px;&quot;&gt;&lt;div style=&quot;color: rgb(170, 170, 170); font-family: &amp;quot;Courier New&amp;quot;; font-size: 10pt;&quot;&gt;&lt;p style=&quot;background-color:#373737;margin:0;&quot;&gt;&lt;span style=&quot;color:#d9e8f7;&quot;&gt;&lt;/span&gt;&lt;/p&gt;&lt;/div&gt;&lt;/div&gt;" style="text;strokeColor=none;fillColor=none;align=left;verticalAlign=top;spacingLeft=4;spacingRight=4;overflow=hidden;rotatable=0;points=[[0,0.5],[1,0.5]];portConstraint=eastwest;whiteSpace=wrap;html=1;" parent="-gcD1UyaqMXCcbMiYJz5-23" vertex="1">
          <mxGeometry y="34" width="210" height="56" as="geometry" />
        </mxCell>
        <mxCell id="DQFGUnD5kL7Wf2tdTDVO-1" value="Client" style="swimlane;fontStyle=1;align=center;verticalAlign=top;childLayout=stackLayout;horizontal=1;startSize=26;horizontalStack=0;resizeParent=1;resizeParentMax=0;resizeLast=0;collapsible=1;marginBottom=0;whiteSpace=wrap;html=1;" vertex="1" parent="1">
          <mxGeometry x="800" y="550" width="160" height="188" as="geometry" />
        </mxCell>
        <mxCell id="DQFGUnD5kL7Wf2tdTDVO-2" value="- String: company_name&lt;br&gt;- String: first_name&lt;br&gt;- String: last_name&lt;br&gt;- String: email&lt;br&gt;- String: phone&lt;br&gt;- String: address&lt;br&gt;- String: zip_code&lt;br&gt;- String: city&lt;br&gt;- String: country&lt;br&gt;- boolean: state" style="text;strokeColor=none;fillColor=none;align=left;verticalAlign=top;spacingLeft=4;spacingRight=4;overflow=hidden;rotatable=0;points=[[0,0.5],[1,0.5]];portConstraint=eastwest;whiteSpace=wrap;html=1;" vertex="1" parent="DQFGUnD5kL7Wf2tdTDVO-1">
          <mxGeometry y="26" width="160" height="154" as="geometry" />
        </mxCell>
        <mxCell id="DQFGUnD5kL7Wf2tdTDVO-3" value="" style="line;strokeWidth=1;fillColor=none;align=left;verticalAlign=middle;spacingTop=-1;spacingLeft=3;spacingRight=3;rotatable=0;labelPosition=right;points=[];portConstraint=eastwest;strokeColor=inherit;" vertex="1" parent="DQFGUnD5kL7Wf2tdTDVO-1">
          <mxGeometry y="180" width="160" height="8" as="geometry" />
        </mxCell>
        <mxCell id="DQFGUnD5kL7Wf2tdTDVO-4" value="ClientDAO" style="swimlane;fontStyle=1;align=center;verticalAlign=top;childLayout=stackLayout;horizontal=1;startSize=26;horizontalStack=0;resizeParent=1;resizeParentMax=0;resizeLast=0;collapsible=1;marginBottom=0;whiteSpace=wrap;html=1;" vertex="1" parent="1">
          <mxGeometry x="530" y="582" width="160" height="106" as="geometry" />
        </mxCell>
        <mxCell id="DQFGUnD5kL7Wf2tdTDVO-6" value="" style="line;strokeWidth=1;fillColor=none;align=left;verticalAlign=middle;spacingTop=-1;spacingLeft=3;spacingRight=3;rotatable=0;labelPosition=right;points=[];portConstraint=eastwest;strokeColor=inherit;" vertex="1" parent="DQFGUnD5kL7Wf2tdTDVO-4">
          <mxGeometry y="26" width="160" height="8" as="geometry" />
        </mxCell>
        <mxCell id="DQFGUnD5kL7Wf2tdTDVO-7" value="+getClientById&lt;span style=&quot;background-color: initial;&quot;&gt;(integer id): Client&lt;br&gt;&lt;br&gt;+ getClients(): List&amp;lt;Client&amp;gt;&lt;br&gt;&lt;/span&gt;" style="text;strokeColor=none;fillColor=none;align=left;verticalAlign=top;spacingLeft=4;spacingRight=4;overflow=hidden;rotatable=0;points=[[0,0.5],[1,0.5]];portConstraint=eastwest;whiteSpace=wrap;html=1;" vertex="1" parent="DQFGUnD5kL7Wf2tdTDVO-4">
          <mxGeometry y="34" width="160" height="72" as="geometry" />
        </mxCell>
        <mxCell id="DQFGUnD5kL7Wf2tdTDVO-8" value="" style="endArrow=none;html=1;rounded=0;entryX=0;entryY=0.5;entryDx=0;entryDy=0;exitX=1.006;exitY=0.417;exitDx=0;exitDy=0;exitPerimeter=0;" edge="1" parent="1" source="-gcD1UyaqMXCcbMiYJz5-18" target="-gcD1UyaqMXCcbMiYJz5-2">
          <mxGeometry width="50" height="50" relative="1" as="geometry">
            <mxPoint x="770" y="420" as="sourcePoint" />
            <mxPoint x="750" y="480" as="targetPoint" />
          </mxGeometry>
        </mxCell>
        <mxCell id="DQFGUnD5kL7Wf2tdTDVO-26" value="1" style="edgeLabel;html=1;align=center;verticalAlign=middle;resizable=0;points=[];" vertex="1" connectable="0" parent="DQFGUnD5kL7Wf2tdTDVO-8">
          <mxGeometry x="0.371" y="-1" relative="1" as="geometry">
            <mxPoint as="offset" />
          </mxGeometry>
        </mxCell>
        <mxCell id="DQFGUnD5kL7Wf2tdTDVO-27" value="1,n" style="edgeLabel;html=1;align=center;verticalAlign=middle;resizable=0;points=[];" vertex="1" connectable="0" parent="DQFGUnD5kL7Wf2tdTDVO-8">
          <mxGeometry x="-0.6848" y="2" relative="1" as="geometry">
            <mxPoint as="offset" />
          </mxGeometry>
        </mxCell>
        <mxCell id="DQFGUnD5kL7Wf2tdTDVO-10" value="" style="endArrow=none;html=1;rounded=0;entryX=0;entryY=0.5;entryDx=0;entryDy=0;" edge="1" parent="1" target="DQFGUnD5kL7Wf2tdTDVO-2">
          <mxGeometry width="50" height="50" relative="1" as="geometry">
            <mxPoint x="690" y="650" as="sourcePoint" />
            <mxPoint x="740" y="611" as="targetPoint" />
          </mxGeometry>
        </mxCell>
        <mxCell id="DQFGUnD5kL7Wf2tdTDVO-28" value="1" style="edgeLabel;html=1;align=center;verticalAlign=middle;resizable=0;points=[];" vertex="1" connectable="0" parent="DQFGUnD5kL7Wf2tdTDVO-10">
          <mxGeometry x="0.7093" relative="1" as="geometry">
            <mxPoint as="offset" />
          </mxGeometry>
        </mxCell>
        <mxCell id="DQFGUnD5kL7Wf2tdTDVO-29" value="1, n" style="edgeLabel;html=1;align=center;verticalAlign=middle;resizable=0;points=[];" vertex="1" connectable="0" parent="DQFGUnD5kL7Wf2tdTDVO-10">
          <mxGeometry x="-0.7265" y="-2" relative="1" as="geometry">
            <mxPoint as="offset" />
          </mxGeometry>
        </mxCell>
        <mxCell id="DQFGUnD5kL7Wf2tdTDVO-11" value="OrderService" style="swimlane;fontStyle=1;align=center;verticalAlign=top;childLayout=stackLayout;horizontal=1;startSize=26;horizontalStack=0;resizeParent=1;resizeParentMax=0;resizeLast=0;collapsible=1;marginBottom=0;whiteSpace=wrap;html=1;" vertex="1" parent="1">
          <mxGeometry x="333.5" y="326" width="160" height="130" as="geometry" />
        </mxCell>
        <mxCell id="DQFGUnD5kL7Wf2tdTDVO-12" value="- OrderDao orderDao" style="text;strokeColor=none;fillColor=none;align=left;verticalAlign=top;spacingLeft=4;spacingRight=4;overflow=hidden;rotatable=0;points=[[0,0.5],[1,0.5]];portConstraint=eastwest;whiteSpace=wrap;html=1;" vertex="1" parent="DQFGUnD5kL7Wf2tdTDVO-11">
          <mxGeometry y="26" width="160" height="24" as="geometry" />
        </mxCell>
        <mxCell id="DQFGUnD5kL7Wf2tdTDVO-13" value="" style="line;strokeWidth=1;fillColor=none;align=left;verticalAlign=middle;spacingTop=-1;spacingLeft=3;spacingRight=3;rotatable=0;labelPosition=right;points=[];portConstraint=eastwest;strokeColor=inherit;" vertex="1" parent="DQFGUnD5kL7Wf2tdTDVO-11">
          <mxGeometry y="50" width="160" height="8" as="geometry" />
        </mxCell>
        <mxCell id="DQFGUnD5kL7Wf2tdTDVO-14" value="+getOrderById&lt;span style=&quot;background-color: initial;&quot;&gt;(integer id): json&lt;br&gt;&lt;br&gt;+ getOrders(): json&lt;br&gt;&lt;/span&gt;" style="text;strokeColor=none;fillColor=none;align=left;verticalAlign=top;spacingLeft=4;spacingRight=4;overflow=hidden;rotatable=0;points=[[0,0.5],[1,0.5]];portConstraint=eastwest;whiteSpace=wrap;html=1;" vertex="1" parent="DQFGUnD5kL7Wf2tdTDVO-11">
          <mxGeometry y="58" width="160" height="72" as="geometry" />
        </mxCell>
        <mxCell id="DQFGUnD5kL7Wf2tdTDVO-15" value="" style="endArrow=none;html=1;rounded=0;exitX=1;exitY=0.5;exitDx=0;exitDy=0;entryX=0;entryY=0.319;entryDx=0;entryDy=0;entryPerimeter=0;" edge="1" parent="1" source="DQFGUnD5kL7Wf2tdTDVO-14" target="-gcD1UyaqMXCcbMiYJz5-18">
          <mxGeometry width="50" height="50" relative="1" as="geometry">
            <mxPoint x="520" y="468" as="sourcePoint" />
            <mxPoint x="570" y="418" as="targetPoint" />
          </mxGeometry>
        </mxCell>
        <mxCell id="DQFGUnD5kL7Wf2tdTDVO-34" value="1" style="edgeLabel;html=1;align=center;verticalAlign=middle;resizable=0;points=[];" vertex="1" connectable="0" parent="DQFGUnD5kL7Wf2tdTDVO-15">
          <mxGeometry x="0.556" y="1" relative="1" as="geometry">
            <mxPoint as="offset" />
          </mxGeometry>
        </mxCell>
        <mxCell id="DQFGUnD5kL7Wf2tdTDVO-35" value="1" style="edgeLabel;html=1;align=center;verticalAlign=middle;resizable=0;points=[];" vertex="1" connectable="0" parent="DQFGUnD5kL7Wf2tdTDVO-15">
          <mxGeometry x="-0.5433" y="-2" relative="1" as="geometry">
            <mxPoint as="offset" />
          </mxGeometry>
        </mxCell>
        <mxCell id="DQFGUnD5kL7Wf2tdTDVO-16" value="ClientService" style="swimlane;fontStyle=1;align=center;verticalAlign=top;childLayout=stackLayout;horizontal=1;startSize=26;horizontalStack=0;resizeParent=1;resizeParentMax=0;resizeLast=0;collapsible=1;marginBottom=0;whiteSpace=wrap;html=1;" vertex="1" parent="1">
          <mxGeometry x="290" y="558" width="160" height="130" as="geometry" />
        </mxCell>
        <mxCell id="DQFGUnD5kL7Wf2tdTDVO-17" value="- ClientDao clientDao" style="text;strokeColor=none;fillColor=none;align=left;verticalAlign=top;spacingLeft=4;spacingRight=4;overflow=hidden;rotatable=0;points=[[0,0.5],[1,0.5]];portConstraint=eastwest;whiteSpace=wrap;html=1;" vertex="1" parent="DQFGUnD5kL7Wf2tdTDVO-16">
          <mxGeometry y="26" width="160" height="24" as="geometry" />
        </mxCell>
        <mxCell id="DQFGUnD5kL7Wf2tdTDVO-18" value="" style="line;strokeWidth=1;fillColor=none;align=left;verticalAlign=middle;spacingTop=-1;spacingLeft=3;spacingRight=3;rotatable=0;labelPosition=right;points=[];portConstraint=eastwest;strokeColor=inherit;" vertex="1" parent="DQFGUnD5kL7Wf2tdTDVO-16">
          <mxGeometry y="50" width="160" height="8" as="geometry" />
        </mxCell>
        <mxCell id="DQFGUnD5kL7Wf2tdTDVO-19" value="+getClientById&lt;span style=&quot;background-color: initial;&quot;&gt;(integer id): json&lt;br&gt;&lt;br&gt;+ getClients(): json&lt;br&gt;&lt;/span&gt;" style="text;strokeColor=none;fillColor=none;align=left;verticalAlign=top;spacingLeft=4;spacingRight=4;overflow=hidden;rotatable=0;points=[[0,0.5],[1,0.5]];portConstraint=eastwest;whiteSpace=wrap;html=1;" vertex="1" parent="DQFGUnD5kL7Wf2tdTDVO-16">
          <mxGeometry y="58" width="160" height="72" as="geometry" />
        </mxCell>
        <mxCell id="DQFGUnD5kL7Wf2tdTDVO-20" value="" style="endArrow=none;html=1;rounded=0;exitX=1;exitY=0.5;exitDx=0;exitDy=0;entryX=0;entryY=0.5;entryDx=0;entryDy=0;" edge="1" parent="1" source="DQFGUnD5kL7Wf2tdTDVO-19" target="DQFGUnD5kL7Wf2tdTDVO-7">
          <mxGeometry width="50" height="50" relative="1" as="geometry">
            <mxPoint x="454" y="653" as="sourcePoint" />
            <mxPoint x="530" y="630" as="targetPoint" />
          </mxGeometry>
        </mxCell>
        <mxCell id="DQFGUnD5kL7Wf2tdTDVO-30" value="1" style="edgeLabel;html=1;align=center;verticalAlign=middle;resizable=0;points=[];" vertex="1" connectable="0" parent="DQFGUnD5kL7Wf2tdTDVO-20">
          <mxGeometry x="0.525" y="-1" relative="1" as="geometry">
            <mxPoint as="offset" />
          </mxGeometry>
        </mxCell>
        <mxCell id="DQFGUnD5kL7Wf2tdTDVO-31" value="1" style="edgeLabel;html=1;align=center;verticalAlign=middle;resizable=0;points=[];" vertex="1" connectable="0" parent="DQFGUnD5kL7Wf2tdTDVO-20">
          <mxGeometry x="-0.7" y="1" relative="1" as="geometry">
            <mxPoint as="offset" />
          </mxGeometry>
        </mxCell>
        <mxCell id="DQFGUnD5kL7Wf2tdTDVO-21" value="ClientServlet" style="swimlane;fontStyle=1;align=center;verticalAlign=top;childLayout=stackLayout;horizontal=1;startSize=26;horizontalStack=0;resizeParent=1;resizeParentMax=0;resizeLast=0;collapsible=1;marginBottom=0;whiteSpace=wrap;html=1;" vertex="1" parent="1">
          <mxGeometry x="20" y="590" width="210" height="90" as="geometry" />
        </mxCell>
        <mxCell id="DQFGUnD5kL7Wf2tdTDVO-22" value="" style="line;strokeWidth=1;fillColor=none;align=left;verticalAlign=middle;spacingTop=-1;spacingLeft=3;spacingRight=3;rotatable=0;labelPosition=right;points=[];portConstraint=eastwest;strokeColor=inherit;" vertex="1" parent="DQFGUnD5kL7Wf2tdTDVO-21">
          <mxGeometry y="26" width="210" height="8" as="geometry" />
        </mxCell>
        <mxCell id="DQFGUnD5kL7Wf2tdTDVO-23" value="+doGet&lt;span style=&quot;background-color: initial;&quot;&gt;(request, response): Void&lt;br&gt;&lt;br&gt;+init(): Void&lt;br&gt;&lt;/span&gt;&lt;div style=&quot;background-color:#2f2f2f;padding:0px 0px 0px 2px;&quot;&gt;&lt;div style=&quot;color: rgb(170, 170, 170); font-family: &amp;quot;Courier New&amp;quot;; font-size: 10pt;&quot;&gt;&lt;p style=&quot;background-color:#373737;margin:0;&quot;&gt;&lt;span style=&quot;color:#d9e8f7;&quot;&gt;&lt;/span&gt;&lt;/p&gt;&lt;/div&gt;&lt;/div&gt;" style="text;strokeColor=none;fillColor=none;align=left;verticalAlign=top;spacingLeft=4;spacingRight=4;overflow=hidden;rotatable=0;points=[[0,0.5],[1,0.5]];portConstraint=eastwest;whiteSpace=wrap;html=1;" vertex="1" parent="DQFGUnD5kL7Wf2tdTDVO-21">
          <mxGeometry y="34" width="210" height="56" as="geometry" />
        </mxCell>
        <mxCell id="DQFGUnD5kL7Wf2tdTDVO-24" value="" style="endArrow=none;html=1;rounded=0;exitX=1;exitY=0.5;exitDx=0;exitDy=0;entryX=0;entryY=0.5;entryDx=0;entryDy=0;" edge="1" parent="1" source="-gcD1UyaqMXCcbMiYJz5-26" target="DQFGUnD5kL7Wf2tdTDVO-14">
          <mxGeometry width="50" height="50" relative="1" as="geometry">
            <mxPoint x="284" y="450" as="sourcePoint" />
            <mxPoint x="334" y="400" as="targetPoint" />
          </mxGeometry>
        </mxCell>
        <mxCell id="DQFGUnD5kL7Wf2tdTDVO-36" value="1" style="edgeLabel;html=1;align=center;verticalAlign=middle;resizable=0;points=[];" vertex="1" connectable="0" parent="DQFGUnD5kL7Wf2tdTDVO-24">
          <mxGeometry x="0.6599" y="-1" relative="1" as="geometry">
            <mxPoint as="offset" />
          </mxGeometry>
        </mxCell>
        <mxCell id="DQFGUnD5kL7Wf2tdTDVO-37" value="1" style="edgeLabel;html=1;align=center;verticalAlign=middle;resizable=0;points=[];" vertex="1" connectable="0" parent="DQFGUnD5kL7Wf2tdTDVO-24">
          <mxGeometry x="-0.5374" y="-1" relative="1" as="geometry">
            <mxPoint as="offset" />
          </mxGeometry>
        </mxCell>
        <mxCell id="DQFGUnD5kL7Wf2tdTDVO-25" value="" style="endArrow=none;html=1;rounded=0;exitX=1;exitY=0.5;exitDx=0;exitDy=0;entryX=0;entryY=0.5;entryDx=0;entryDy=0;" edge="1" parent="1" source="DQFGUnD5kL7Wf2tdTDVO-23" target="DQFGUnD5kL7Wf2tdTDVO-19">
          <mxGeometry width="50" height="50" relative="1" as="geometry">
            <mxPoint x="240" y="669" as="sourcePoint" />
            <mxPoint x="290" y="619" as="targetPoint" />
          </mxGeometry>
        </mxCell>
        <mxCell id="DQFGUnD5kL7Wf2tdTDVO-32" value="1" style="edgeLabel;html=1;align=center;verticalAlign=middle;resizable=0;points=[];" vertex="1" connectable="0" parent="DQFGUnD5kL7Wf2tdTDVO-25">
          <mxGeometry x="0.3333" y="1" relative="1" as="geometry">
            <mxPoint as="offset" />
          </mxGeometry>
        </mxCell>
        <mxCell id="DQFGUnD5kL7Wf2tdTDVO-33" value="1" style="edgeLabel;html=1;align=center;verticalAlign=middle;resizable=0;points=[];" vertex="1" connectable="0" parent="DQFGUnD5kL7Wf2tdTDVO-25">
          <mxGeometry x="-0.6" y="-1" relative="1" as="geometry">
            <mxPoint as="offset" />
          </mxGeometry>
        </mxCell>
      </root>
    </mxGraphModel>
  </diagram>
</mxfile>
